<svg width="164" height="100" viewBox="0 0 164 100" fill="none" xmlns="http://www.w3.org/2000/svg">
<path d="M83.5198 84.1864C84.4021 84.5014 85.2046 84.8542 85.9861 85.2658C88.4274 86.6015 90.4024 88.5002 91.8564 90.7436C92.3355 91.4452 92.7725 92.2644 93.092 93.0417L111.97 40.1594C109.247 39.9833 106.474 39.3912 103.769 38.4253C103.474 38.3203 103.121 38.1942 102.827 38.0893C87.4071 32.054 79.4555 14.7577 85.0832 -1.00697C85.2932 -1.5952 85.5031 -2.18344 85.7719 -2.75068C87.1454 -6.04062 89.1029 -8.92315 91.3881 -11.4233L83.1528 -14.3632C84.2997 -15.3465 85.1566 -16.6323 85.6815 -18.1029C87.3404 -22.7499 84.9197 -27.8585 80.2726 -29.5174C75.6256 -31.1763 70.5169 -28.7556 68.858 -24.1086C68.312 -22.5791 68.2409 -21.0792 68.4469 -19.6129L35.2705 -31.4563C29.9175 -33.3672 24.0107 -30.5682 22.0998 -25.2153L10.6554 6.84355C12.2985 9.48604 13.1771 12.7841 13.2028 16.2419C14.8453 14.2418 16.7945 12.6828 18.8531 11.5607C22.4493 9.66117 26.5288 9.1941 30.2935 10.538C38.3523 13.4149 42.1099 23.5106 38.7081 33.04C37.6161 36.0988 36.0367 38.8509 33.9027 40.7419C33.1171 41.4562 31.4283 42.8429 30.5461 43.4565C24.8788 47.0705 10.2167 53.7741 2.57892 57.149C-0.332513 58.4308 -2.14742 59.2419 -2.14742 59.2419C-2.14742 59.2419 -3.60991 56.4649 -5.61879 52.4318L-23.0269 101.197C-24.9378 106.549 -22.1178 112.397 -16.7648 114.308L64.2351 143.224C65.7057 143.749 67.2434 143.9 68.7475 143.774C68.071 143.068 67.4953 142.266 67.0414 141.308C65.9445 138.993 65.8811 136.384 66.6791 134.148C67.477 131.913 69.1783 129.934 71.4932 128.837L82.1095 123.806L85.4274 114.512C82.2723 116.105 78.6255 116.66 75.0038 116.03C74.1382 115.854 73.2937 115.619 72.4114 115.304C68.882 114.044 66.0078 111.692 64.0747 108.747C63.2511 107.524 62.6669 106.188 62.1835 104.756C61.1285 101.395 61.1069 97.7393 62.3879 94.151C65.4915 85.6426 74.9316 81.1205 83.5198 84.1864ZM76.2408 -18.2233C74.6526 -18.7902 73.7616 -20.5673 74.3496 -22.2144C74.9376 -23.8614 76.6937 -24.6936 78.3407 -24.1056C79.9878 -23.5177 80.8199 -21.7616 80.232 -20.1145C79.644 -18.4674 77.8291 -17.6563 76.2408 -18.2233Z" fill="#105484"/>
<path d="M62.4257 94.2309C61.1658 97.7603 61.1664 101.474 62.2214 104.835C62.7048 106.268 63.289 107.604 64.1127 108.826C66.0458 111.771 68.861 114.103 72.4493 115.384C73.3316 115.699 74.1762 115.934 75.0417 116.11L71.3879 126.346C69.855 130.64 65.1664 132.813 60.9311 131.301L-6.48063 107.236C-10.7747 105.703 -12.9475 101.014 -11.4356 96.7791L2.71763 57.1321C10.3554 53.7572 25.0176 47.0538 30.6848 43.4397C31.5461 42.885 33.2349 41.4982 34.0414 40.725C36.1965 38.7752 37.7758 36.0231 38.8468 33.0231C42.2486 23.4937 38.491 13.3981 30.4322 10.5213C26.6675 9.17735 22.588 9.64428 18.9918 11.5439L28.3153 -14.5737C29.8272 -18.809 34.5367 -21.0407 38.772 -19.5288L85.8308 -2.72968C85.562 -2.16244 85.352 -1.5742 85.1421 -0.985969C79.5353 14.7199 87.4282 31.9952 102.886 38.1103L86.0241 85.3456C85.2426 84.9339 84.4401 84.5811 83.5577 84.2661C74.9317 81.1205 65.4916 85.6427 62.4257 94.2309Z" fill="#136BA9"/>
<path opacity="0.14" d="M72.4492 115.384C68.9198 114.124 66.0457 111.771 64.1126 108.826C63.2889 107.604 62.7047 106.268 62.2213 104.835C61.1663 101.474 61.1447 97.8192 62.4256 94.2309C63.3706 91.5839 64.9206 89.2854 66.9539 87.4911C46.3761 94.6029 20.3947 97.5308 -9.87761 92.2287L-11.4735 96.6994C-13.0065 100.993 -10.7538 105.644 -6.51851 107.156L60.8932 131.221C65.1873 132.754 69.838 130.501 71.3499 126.266L75.0038 116.03C74.1382 115.854 73.2727 115.678 72.4492 115.384ZM77.4947 83.2294C79.5114 83.1535 81.5198 83.4724 83.5786 84.2074C84.4609 84.5224 85.2635 84.8752 86.045 85.2869L88.9429 77.1692C85.3803 79.3461 81.5447 81.3591 77.4947 83.2294Z" fill="#007250"/>
<path d="M38.7292 32.9811C37.6373 36.04 36.0579 38.7921 33.9238 40.6831C33.1382 41.3974 31.4494 42.7842 30.5672 43.3978C24.8999 47.0118 10.2378 53.7153 2.60007 57.0901C-0.311367 58.372 -2.12627 59.1831 -2.12627 59.1831C-2.12627 59.1831 -3.58882 56.4062 -5.59769 52.3731C-9.50197 44.5463 -15.5791 32.031 -17.4916 26.2417C-17.7858 25.2082 -18.2146 23.0654 -18.3702 22.015C-18.8034 19.1413 -18.2829 16.0112 -17.212 13.0112C-13.8102 3.48175 -4.50889 -1.95201 3.54993 0.924843C6.60875 2.01679 9.03334 4.1423 10.6555 6.84361C12.2986 9.4861 13.1772 12.7842 13.2029 16.242C14.8454 14.2418 16.7946 12.6829 18.8532 11.5608C22.4494 9.66123 26.529 9.19416 30.2937 10.5381C38.4533 13.3183 42.152 23.3929 38.7292 32.9811Z" fill="#115C91"/>
<path d="M-9.01107 39.0844C-9.0699 39.0634 -9.0699 39.0634 -9.01107 39.0844C-9.59931 38.8744 -9.86402 38.3156 -9.73385 37.7652L-5.2953 21.2444L-8.86997 26.7992C-9.15561 27.2278 -9.69332 27.4337 -10.1639 27.2657L-14.2816 25.7958C-14.7521 25.6278 -15.0001 25.2077 -15.0295 24.733L-14.9922 22.0273L-16.933 24.1199C-17.2354 24.4098 -17.6933 24.5779 -18.1051 24.4309L-28.6345 20.6721C-29.2227 20.4621 -29.5253 19.8236 -29.3153 19.2354C-29.1054 18.6472 -28.4668 18.3445 -27.8786 18.5545L-18.055 22.0613L-14.6398 18.4392C-14.3163 18.0904 -13.8205 18.002 -13.4088 18.149C-12.997 18.296 -12.6902 18.7373 -12.7196 19.191L-12.7609 23.9512L-10.2315 24.8542L-3.30898 14.1941C-3.02334 13.7655 -2.42682 13.5806 -1.95624 13.7486C-1.44782 13.9964 -1.16204 14.4962 -1.35103 15.0256L-5.12612 29.1305L-4.48766 27.8994C-4.23984 27.391 -3.64329 27.2061 -3.1727 27.3741L-1.17269 28.088L2.34756 24.1717C2.67102 23.8229 3.24664 23.6968 3.69623 23.9236C4.14582 24.1504 4.37277 24.6293 4.2636 25.1209L3.07542 30.8645L5.82681 26.8727C6.11245 26.4442 6.62919 26.297 7.09978 26.465C7.57037 26.633 7.87717 27.0741 7.82683 27.5867L7.62987 31.2966L17.9828 34.9924L22.8766 28.7148C23.221 28.3072 23.7378 28.1601 24.1874 28.3869C24.637 28.6138 24.9227 29.1137 24.8136 29.6053L22.5551 42.9914L28.8856 35.1043C29.1502 34.7345 29.5872 34.6253 30.0199 34.7134C30.4317 34.8604 30.7805 35.1839 30.831 35.5998L31.4534 39.8012L43.4534 44.0849C44.0416 44.2949 44.3442 44.9335 44.1342 45.5218C43.9242 46.11 43.2857 46.4126 42.6974 46.2026L30.0504 41.6879C29.6386 41.5409 29.3696 41.1797 29.2982 40.8225L28.9533 38.4445L21.5475 47.672C21.203 48.0796 20.7072 48.1679 20.2366 47.9999C19.787 47.7731 19.5013 47.2731 19.5895 46.8403L21.8647 33.5928L19.1637 37.072C18.8991 37.4417 18.3823 37.589 17.9117 37.421L6.02933 33.1792C5.55874 33.0112 5.25201 32.5701 5.30235 32.0575L5.33584 31.4062L1.66876 36.6628C1.38312 37.0913 0.786505 37.2763 0.336915 37.0495C-0.112676 36.8227 -0.398432 36.3228 -0.289263 35.8312L1.16343 28.7894L-0.151443 30.2432C-0.474906 30.592 -0.911849 30.7013 -1.32361 30.5543L-3.08832 29.9244L-7.79692 38.6556C-7.94391 39.0674 -8.54049 39.2524 -9.01107 39.0844Z" fill="#105484"/>
<path d="M91.8565 90.7436L82.4374 95.207L62.2424 104.777C61.1874 101.416 61.1658 97.7603 62.4468 94.172C65.5126 85.5838 75.0115 81.0827 83.5997 84.1485C84.4821 84.4635 85.2846 84.8163 86.0661 85.228C88.4066 86.6603 90.3815 88.5591 91.8565 90.7436Z" fill="#115C91"/>
<path d="M93.5435 105.339C92.0525 109.516 89.0615 112.693 85.4065 114.571C82.2514 116.164 78.6046 116.719 74.9829 116.089C74.1174 115.913 73.2729 115.678 72.3905 115.363C68.8611 114.103 65.987 111.75 64.0539 108.805L80.2578 101.127L92.1514 95.4913L93.668 94.7726C94.8029 98.0958 94.8244 101.751 93.5435 105.339Z" fill="#115C91"/>
<path d="M93.7477 94.7348L92.231 95.4535L80.3375 101.089L64.1336 108.768C63.3099 107.545 62.7257 106.209 62.2423 104.777L82.4374 95.207L91.8565 90.7437C92.3355 91.4452 92.7726 92.2645 93.092 93.0417C93.3568 93.6005 93.5417 94.197 93.7477 94.7348Z" fill="#105484"/>
<path d="M124.515 -19.6925C112.457 -23.9972 99.4787 -20.3401 91.409 -11.4822C89.1237 -8.98202 87.2251 -6.07863 85.7929 -2.80969C85.5241 -2.24245 85.3141 -1.65421 85.1041 -1.06598C79.4974 14.6399 87.3901 31.9153 102.848 38.0304C103.142 38.1354 103.495 38.2614 103.789 38.3664C106.495 39.3323 109.268 39.9243 111.991 40.1004C125.444 41.0564 138.455 33.0339 143.222 19.6809C148.933 3.68094 140.574 -13.9597 124.515 -19.6925ZM132.437 22.3967C132.164 23.1614 131.286 23.5774 130.521 23.3044L120.051 19.5666C119.815 19.4826 119.559 19.4575 119.282 19.4912C118.786 19.5795 118.324 19.9451 118.135 20.4745L114.397 30.945C114.124 31.7097 113.246 32.1259 112.481 31.8529L101.011 27.7581C100.246 27.4851 99.83 26.607 100.103 25.8423L103.841 15.3718C104.114 14.6071 103.698 13.7289 102.933 13.456L92.4624 9.71816C91.6977 9.44518 91.2816 8.56719 91.5546 7.80248L95.6494 -3.6681C95.9224 -4.43281 96.8004 -4.84896 97.5652 -4.57597L108.036 -0.838183C108.8 -0.565197 109.678 -0.981206 109.951 -1.74591L113.71 -12.2753C113.983 -13.04 114.861 -13.4561 115.626 -13.1831L127.097 -9.08834C127.861 -8.81536 128.277 -7.93722 128.004 -7.17251L124.246 3.35684C123.973 4.12154 124.389 4.99951 125.153 5.2725L135.624 9.01031C136.389 9.2833 136.826 10.1026 136.532 10.9261L132.437 22.3967Z" fill="#115C91"/>
<path d="M136.511 10.9848L132.416 22.4554C132.143 23.2201 131.265 23.6363 130.5 23.3633L120.03 19.6255C119.794 19.5415 119.538 19.5163 119.261 19.55C118.765 19.6383 118.303 20.0038 118.114 20.5332L114.376 31.0038C114.103 31.7685 113.225 32.1845 112.46 31.9116L100.99 27.8168C100.225 27.5438 99.809 26.6658 100.082 25.9011L103.82 15.4305C104.093 14.6658 103.677 13.7878 102.912 13.5148L92.4415 9.777C91.6768 9.50402 91.2607 8.62588 91.5337 7.86117L95.6285 -3.60941C95.9015 -4.37412 96.7795 -4.79012 97.5442 -4.51714L108.015 -0.779348C108.779 -0.506362 109.657 -0.92237 109.93 -1.68708L113.689 -12.2166C113.962 -12.9813 114.84 -13.3973 115.605 -13.1243L127.076 -9.02951C127.84 -8.75652 128.256 -7.87853 127.983 -7.11382L124.225 3.41567C123.952 4.18038 124.368 5.05834 125.132 5.33133L135.603 9.06915C136.427 9.36313 136.805 10.1613 136.511 10.9848Z" fill="#105484"/>
<path d="M90.2038 50.2292L42.7332 33.2831C42.0862 33.0521 41.7458 32.3337 41.9768 31.6866C42.2077 31.0395 42.9261 30.6991 43.5732 30.9301L91.0437 47.8762C91.6908 48.1072 92.0312 48.8256 91.8002 49.4727C91.5692 50.1197 90.8508 50.4602 90.2038 50.2292Z" fill="#105484"/>
<path d="M87.537 57.6997L40.0665 40.7536C39.4194 40.5226 39.079 39.8042 39.31 39.1571C39.541 38.5101 40.2594 38.1696 40.9065 38.4006L88.377 55.3467C89.024 55.5777 89.3645 56.2961 89.1335 56.9432C88.9025 57.5902 88.1841 57.9307 87.537 57.6997Z" fill="#105484"/>
<path d="M84.891 65.1116L37.4205 48.1655C36.7734 47.9345 36.433 47.2161 36.664 46.569C36.895 45.922 37.6134 45.5816 38.2605 45.8126L85.731 62.7587C86.3781 62.9897 86.7185 63.7081 86.4875 64.3551C86.2565 65.0022 85.5381 65.3426 84.891 65.1116Z" fill="#105484"/>
<path d="M82.224 72.5819L34.7535 55.6358C34.1064 55.4048 33.766 54.6864 33.997 54.0394C34.228 53.3923 34.9464 53.0519 35.5935 53.2829L83.064 70.229C83.7111 70.46 84.0515 71.1784 83.8205 71.8255C83.5895 72.4725 82.8711 72.8129 82.224 72.5819Z" fill="#105484"/>
<path d="M75.8611 27.7997L47.3905 17.6362C44.92 16.7542 43.5751 14.0193 44.4781 11.4899C45.36 9.0193 48.0949 7.67446 50.6244 8.57742L79.0949 18.7409C81.5655 19.6228 82.9104 22.3578 82.0074 24.8872C81.0666 27.3368 78.3317 28.6816 75.8611 27.7997Z" fill="#105484"/>
<path d="M25.1675 67.9981L13.1086 63.6933L8.80387 75.7521L20.8627 80.0569L25.1675 67.9981Z" fill="#115C91"/>
<path d="M18.8049 85.8215L6.74609 81.5167L2.44132 93.5755L14.5001 97.8803L18.8049 85.8215Z" fill="#115C91"/>
<path d="M60.1934 85.8073L28.0758 74.3419C27.4287 74.1109 27.0883 73.3925 27.3193 72.7454C27.5503 72.0984 28.2687 71.758 28.9157 71.9889L61.0922 83.4753C61.7392 83.7063 62.0796 84.4247 61.8486 85.0718C61.6177 85.7188 60.8405 86.0383 60.1934 85.8073Z" fill="#105484"/>
<path d="M58.3877 90.8661L26.2701 79.4007C25.623 79.1697 25.2826 78.4513 25.5136 77.8043C25.7446 77.1572 26.463 76.8168 27.1101 77.0478L59.2865 88.5342C59.9336 88.7652 60.274 89.4836 60.043 90.1306C59.812 90.7777 59.0348 91.0971 58.3877 90.8661Z" fill="#105484"/>
<path d="M53.8308 103.631L21.7132 92.1653C21.0662 91.9343 20.7257 91.2159 20.9567 90.5689C21.1877 89.9218 21.9061 89.5814 22.5532 89.8124L54.7296 101.299C55.3767 101.53 55.7171 102.248 55.4861 102.895C55.2551 103.542 54.4779 103.862 53.8308 103.631Z" fill="#105484"/>
<path d="M52.0249 108.69L19.9073 97.2242C19.2603 96.9932 18.9198 96.2748 19.1508 95.6278C19.3818 94.9807 20.1002 94.6403 20.7473 94.8713L52.9237 106.358C53.5708 106.589 53.9112 107.307 53.6802 107.954C53.4492 108.601 52.672 108.921 52.0249 108.69Z" fill="#105484"/>
<path d="M13.2076 78.6504C13.2832 78.8101 13.3588 78.9697 13.4555 79.0705C14.0522 79.8141 15.1152 79.9946 15.9176 79.4189L16.0184 79.3223C18.8289 77.2085 21.5637 74.9352 24.1053 72.4601C25.3949 71.2625 26.6468 69.9851 27.8608 68.6278C29.0538 67.3294 30.2091 65.9512 31.2886 64.4133C29.6333 65.1488 28.0537 66.0439 26.5329 66.96C25.0121 67.8762 23.5292 68.8722 22.0462 69.8681C19.7398 71.4986 17.5301 73.2299 15.4171 75.062C14.7909 73.8437 14.1058 72.6044 13.3409 71.4029C12.2147 69.5418 10.9498 67.6976 9.52524 65.929C9.85327 68.1683 10.4208 70.2942 11.0471 72.441C11.6945 74.5291 12.4006 76.6381 13.2076 78.6504Z" fill="#105484"/>
<path d="M15.6038 87.7294C13.2974 89.3599 11.0876 91.0913 8.97455 92.9235C8.34836 91.7051 7.66339 90.4657 6.89855 89.2642C5.77229 87.4031 4.50741 85.5589 3.08286 83.7903C3.41089 86.0296 3.97835 88.1555 4.60467 90.3023C5.252 92.3904 5.95821 94.4994 6.76518 96.5118C6.84083 96.6714 6.91647 96.8311 7.01312 96.9319C7.60983 97.6754 8.67285 97.8559 9.47525 97.2802L9.57604 97.1836C12.3865 95.0699 15.1213 92.7965 17.6629 90.3215C18.9526 89.1239 20.2044 87.8464 21.4184 86.4892C22.6115 85.1907 23.7667 83.8125 24.8462 82.2746C23.191 83.0101 21.6113 83.9052 20.0905 84.8213C18.5109 85.7165 17.0279 86.7125 15.6038 87.7294Z" fill="#105484"/>
</svg>
