<svg width="18" height="18" viewBox="0 0 18 18" fill="none" xmlns="http://www.w3.org/2000/svg">
<path d="M11.2498 2.81248C11.968 2.81248 12.2616 2.81422 12.4984 2.85172C13.8623 3.06774 14.932 4.13743 15.148 5.50134C15.1855 5.73809 15.1873 6.03173 15.1873 6.74998V11.25C15.1873 11.9682 15.1855 12.2619 15.148 12.4986C14.932 13.8625 13.8623 14.9322 12.4984 15.1482C12.2616 15.1857 11.968 15.1875 11.2498 15.1875H10.4998C9.78154 15.1875 9.12026 14.9506 8.58758 14.5505C8.33919 14.3639 7.98658 14.414 7.8 14.6624C7.61342 14.9108 7.66354 15.2634 7.91193 15.45C8.63274 15.9914 9.52957 16.3125 10.4998 16.3125L11.3104 16.3125C11.9494 16.3125 12.3386 16.3126 12.6744 16.2594C14.5197 15.9671 15.9669 14.5199 16.2592 12.6746C16.3123 12.3388 16.3123 11.9496 16.3123 11.3106V6.68937C16.3123 6.05035 16.3123 5.66111 16.2592 5.32535C15.9669 3.48006 14.5197 2.03283 12.6744 1.74057C12.3386 1.68739 11.9494 1.68742 11.3104 1.68747L10.4998 1.68748C9.52957 1.68748 8.63274 2.00852 7.91193 2.54995C7.66354 2.73652 7.61342 3.08913 7.8 3.33753C7.98658 3.58592 8.33919 3.63603 8.58758 3.44946C9.12026 3.04935 9.78153 2.81248 10.4998 2.81248H11.2498Z" fill="white"/>
<path d="M10.0992 5.55921C9.85581 5.3662 9.502 5.40707 9.30899 5.6505C9.11598 5.89393 9.15685 6.24773 9.40028 6.44074L10.7225 7.48912C11.2505 7.90779 11.612 8.19548 11.8576 8.43748L2.24976 8.43748C1.9391 8.43748 1.68726 8.68932 1.68726 8.99998C1.68726 9.31064 1.9391 9.56248 2.24976 9.56248L11.8576 9.56248C11.612 9.80447 11.2505 10.0922 10.7225 10.5108L9.40028 11.5592C9.15685 11.7522 9.11598 12.106 9.30899 12.3495C9.502 12.5929 9.85581 12.6338 10.0992 12.4407L11.4483 11.371C11.9527 10.9712 12.3689 10.6412 12.6654 10.3458C12.9696 10.0428 13.2218 9.70636 13.2903 9.27648C13.3049 9.1849 13.3123 9.09251 13.3123 8.99998C13.3123 8.90744 13.3049 8.81505 13.2903 8.72347C13.2218 8.29359 12.9696 7.95719 12.6654 7.65411C12.3689 7.35876 11.9527 7.02879 11.4483 6.62891L10.0992 5.55921Z" fill="white"/>
</svg>
