<svg width="145" height="100" viewBox="0 0 145 100" fill="none" xmlns="http://www.w3.org/2000/svg">
<path d="M14.1862 69.6024C13.3712 69.4428 12.5999 69.3482 11.8179 69.308C9.35261 69.2202 6.98765 69.7727 4.8636 70.8238C4.18079 71.1414 3.47672 71.5678 2.8813 72.0154L12.445 23.1668C14.5995 24.2656 16.9808 25.0703 19.4803 25.5596C19.752 25.6128 20.078 25.6766 20.3497 25.7298C34.8341 28.1143 48.7268 18.5348 51.5779 3.97259C51.6843 3.42922 51.7906 2.88586 51.8427 2.33185C52.2861 -0.797257 52.0998 -3.88043 51.4906 -6.82067L59.0978 -5.33132C58.6691 -6.60005 58.5985 -7.96796 58.8644 -9.32637C59.7048 -13.619 63.8632 -16.4156 68.1558 -15.5752C72.4484 -14.7348 75.2451 -10.5765 74.4047 -6.28386C74.1281 -4.87111 73.503 -3.69583 72.6819 -2.67178L103.328 3.32815C108.272 4.29622 111.506 9.10436 110.538 14.049L104.74 43.6625C102.291 44.9321 100.128 47.0474 98.5426 49.6708C98.1968 47.4028 97.4174 45.332 96.3569 43.5446C94.4767 40.4684 91.5794 38.2649 88.1018 37.584C80.6577 36.1266 73.222 42.1183 71.4987 50.9208C70.9455 53.7463 70.9027 56.5589 71.6725 58.9664C71.9477 59.8665 72.6066 61.6881 73.001 62.5552C75.683 67.8759 83.8203 79.6247 88.1123 85.6556C89.7504 87.951 90.7661 89.391 90.7661 89.391C90.7661 89.391 93.1383 87.9371 96.4957 85.7734L87.6767 130.819C86.7086 135.763 81.9111 138.943 76.9665 137.975L2.14486 123.326C0.786439 123.06 -0.453815 122.479 -1.54284 121.701C-0.707662 121.47 0.0944106 121.119 0.874112 120.595C2.75839 119.327 3.98834 117.368 4.3926 115.303C4.79685 113.238 4.39666 110.959 3.1294 109.075L-2.68246 100.434L-1.00163 91.8483C0.681345 94.491 3.209 96.5656 6.25415 97.726C6.99359 97.9836 7.74362 98.1869 8.55867 98.3464C11.8189 98.9847 15.0745 98.4938 17.8813 97.125C19.0626 96.5665 20.1129 95.8129 21.1301 94.9401C23.4562 92.8567 25.1281 90.0809 25.777 86.7663C27.2652 78.8769 22.1194 71.1555 14.1862 69.6024ZM66.1132 -5.14254C67.5803 -4.85531 69.0641 -5.80604 69.362 -7.32747C69.6598 -8.8489 68.6985 -10.2783 67.1771 -10.5762C65.6556 -10.8741 64.2262 -9.91272 63.9283 -8.39129C63.6304 -6.86986 64.6461 -5.42978 66.1132 -5.14254Z" fill="#CD501B"/>
<path d="M25.7119 86.8101C25.0736 90.0703 23.3912 92.9003 21.065 94.9837C20.0478 95.8566 18.9976 96.6101 17.8163 97.1687C15.0094 98.5374 11.8081 99.0391 8.49359 98.3902C7.67855 98.2306 6.92845 98.0273 6.18901 97.7697L4.33798 107.224C3.56139 111.191 6.15028 114.97 10.0625 115.736L72.3324 127.927C76.299 128.704 80.0781 126.115 80.8441 122.203L88.0142 85.5799C83.7223 79.549 75.5848 67.8004 72.9028 62.4796C72.4978 61.6669 71.8389 59.8452 71.5744 58.8907C70.8151 56.4289 70.858 53.6163 71.4006 50.8451C73.124 42.0426 80.5596 36.051 88.0037 37.5085C91.4813 38.1893 94.3786 40.3927 96.2588 43.4689L100.982 19.3435C101.748 15.4313 99.1699 11.5977 95.2576 10.8317L51.7883 2.32121C51.7362 2.87521 51.6298 3.41858 51.5234 3.96195C48.6831 18.4698 34.8445 28.0599 20.2952 25.7192L11.7528 69.3516C12.5348 69.3918 13.3062 69.4864 14.1212 69.646C22.1193 71.1555 27.2651 78.8769 25.7119 86.8101Z" fill="#6A502A" fill-opacity="0.29"/>
<path opacity="0.14" d="M8.49344 98.3902C11.7536 99.0285 15.0093 98.5374 17.8161 97.1687C18.9974 96.6101 20.0477 95.8566 21.0649 94.9838C23.391 92.9003 25.0629 90.1246 25.7118 86.8101C26.1905 84.3649 26.0503 81.9114 25.3135 79.6232C37.7739 94.3622 56.2471 108.36 81.7174 118.03L80.9089 122.159C80.1323 126.126 76.3094 128.65 72.3972 127.884L10.1273 115.692C6.16077 114.916 3.63689 111.093 4.40284 107.181L6.2539 97.726C6.99333 97.9836 7.73272 98.2413 8.49344 98.3902ZM19.2108 71.6017C17.7084 70.6305 16.0335 69.9641 14.1317 69.5917C13.3166 69.4322 12.5452 69.3376 11.7632 69.2973L13.2313 61.7988C14.9603 65.0712 16.9715 68.3423 19.2108 71.6017Z" fill="#7B4A1E"/>
<path d="M71.5092 50.8663C70.956 53.6918 70.9132 56.5043 71.683 58.9119C71.9582 59.812 72.617 61.6337 73.0115 62.5008C75.6935 67.8215 83.8308 79.5701 88.1228 85.601C89.7609 87.8964 90.7766 89.3365 90.7766 89.3365C90.7766 89.3365 93.1488 87.8827 96.5062 85.719C103.026 81.5228 113.325 74.7378 117.405 71.1921C118.097 70.5378 119.394 69.0991 119.988 68.3692C121.62 66.3754 122.641 63.7544 123.183 60.9832C124.907 52.1806 120.28 43.8274 112.836 42.37C110.01 41.8168 107.2 42.3385 104.74 43.6624C102.291 44.9319 100.128 47.0473 98.5425 49.6707C98.1967 47.4026 97.4173 45.3318 96.3567 43.5445C94.4765 40.4682 91.5792 38.2647 88.1017 37.5839C80.6245 36.0071 73.2432 42.0094 71.5092 50.8663Z" fill="#CB4E18"/>
<path d="M105.125 77.1386C105.18 77.1492 105.18 77.1492 105.125 77.1386C105.669 77.2449 106.124 76.939 106.274 76.4606L110.373 61.8607L110.582 67.7127C110.605 68.1687 110.922 68.5691 111.356 68.6542L115.16 69.3989C115.595 69.484 115.974 69.2762 116.211 68.9277L117.408 66.8489L117.94 69.3225C118.039 69.6805 118.312 70.0159 118.692 70.0904L128.418 71.9946C128.962 72.101 129.481 71.7515 129.588 71.2081C129.694 70.6648 129.344 70.145 128.801 70.0386L119.727 68.262L118.765 63.955C118.676 63.5427 118.338 63.2508 117.958 63.1764C117.578 63.1019 117.144 63.2992 116.961 63.6583L114.837 67.3046L112.5 66.8471L112.053 55.5884C112.029 55.1325 111.658 54.7214 111.224 54.6363C110.724 54.5949 110.28 54.8464 110.184 55.3354L106.673 67.7937L106.744 66.5664C106.785 66.0668 106.414 65.6556 105.98 65.5705L104.132 65.2088L103.223 60.6301C103.135 60.2179 102.753 59.861 102.308 59.8302C101.863 59.7995 101.473 60.0617 101.333 60.4857L99.6375 65.4008L99.3486 61.1127C99.3251 60.6568 98.9979 60.3106 98.5632 60.2255C98.1286 60.1404 97.695 60.3376 97.5012 60.751L95.9711 63.6674L86.4079 61.7951L85.5216 54.7949C85.4437 54.3283 85.1165 53.9821 84.6712 53.9514C84.2258 53.9206 83.7817 54.1721 83.6422 54.5962L79.3008 65.8199L78.0487 56.9426C78.0145 56.541 77.731 56.2598 77.3613 56.131C76.9809 56.0565 76.5686 56.145 76.3418 56.4391L73.9647 59.3589L62.88 57.1887C62.3367 57.0823 61.8169 57.432 61.7105 57.9753C61.6041 58.5187 61.9537 59.0385 62.4971 59.1449L74.1795 61.4321C74.5598 61.5066 74.9284 61.3531 75.1446 61.1133L76.4844 59.4573L77.949 69.8432C78.0269 70.3098 78.3647 70.6016 78.7994 70.6867C79.2447 70.7175 79.6889 70.4658 79.8177 70.0961L84.0835 58.9704L84.5661 62.845C84.6003 63.2466 84.9275 63.5928 85.3622 63.678L96.3382 65.8269C96.7729 65.912 97.2064 65.7147 97.4002 65.3013L97.6696 64.7899L98.0835 70.4564C98.1071 70.9123 98.478 71.3235 98.9233 71.3543C99.3686 71.385 99.8128 71.1335 99.9523 70.7094L102.034 64.6853L102.378 66.3887C102.466 66.8009 102.75 67.0822 103.13 67.1566L104.76 67.4758L104.394 76.2619C104.32 76.6423 104.691 77.0534 105.125 77.1386Z" fill="#B0501F"/>
<path d="M-19.6805 104.835L-10.6349 118.285C-8.58107 121.339 -4.87322 122.572 -1.5325 121.647C-0.697316 121.415 0.104757 121.064 0.884455 120.54C2.76873 119.273 3.99866 117.313 4.40291 115.248C4.80716 113.184 4.407 110.905 3.13974 109.021L-5.90583 95.5708L-19.6805 104.835Z" fill="#E16936"/>
<path d="M4.86379 70.8236L10.0202 78.4907L21.0759 94.9294C23.4021 92.8459 25.0739 90.0701 25.7229 86.7556C27.2761 78.8224 22.0759 71.0904 14.1428 69.5372C13.3277 69.3776 12.5563 69.2831 11.7743 69.2428C9.34212 69.2744 6.97719 69.8269 4.86379 70.8236Z" fill="#DD6430"/>
<path d="M-3.03313 81.1822C-3.78844 85.0401 -2.94783 88.8156 -1.01331 91.9025C0.669657 94.5451 3.19732 96.6197 6.24247 97.7801C6.98191 98.0377 7.73194 98.241 8.54699 98.4006C11.8072 99.0389 15.0628 98.5478 17.8697 97.179L8.99888 83.9893L2.4878 74.3079L1.6575 73.0734C-0.712363 75.0919 -2.3842 77.8677 -3.03313 81.1822Z" fill="#DD6430"/>
<path d="M1.61482 73.0085L2.44509 74.2431L8.95619 83.9243L17.8269 97.1142C19.0083 96.5556 20.0585 95.8021 21.0757 94.9293L10.02 78.4906L4.86356 70.8236C4.18075 71.1412 3.47667 71.5676 2.88126 72.0152C2.42644 72.3211 2.0153 72.692 1.61482 73.0085Z" fill="#B0501F"/>
<path d="M29.9911 -28.1251C41.1302 -25.9443 49.3637 -17.2799 51.5016 -6.87504C52.1108 -3.93481 52.2427 -0.862401 51.8537 2.27734C51.8017 2.83135 51.6953 3.37471 51.5889 3.91808C48.7485 18.426 34.91 28.0162 20.3607 25.6755C20.089 25.6223 19.763 25.5584 19.4913 25.5052C16.9918 25.0159 14.6105 24.2111 12.456 23.1123C1.771 17.748 -4.51061 5.74201 -2.09574 -6.59242C0.79784 -21.372 15.1572 -31.0294 29.9911 -28.1251ZM4.89286 0.361429C4.75456 1.06781 5.23527 1.78248 5.94165 1.92077L15.6136 3.81437C15.831 3.85693 16.0376 3.95384 16.2337 4.10507C16.5715 4.39688 16.758 4.88481 16.6623 5.37384L14.7687 15.0457C14.6304 15.752 15.1111 16.4668 15.8175 16.6051L26.4132 18.6796C27.1195 18.8179 27.8343 18.3371 27.9726 17.6307L29.8661 7.95892C30.0044 7.25255 30.7192 6.77178 31.4256 6.91008L41.0975 8.80367C41.8038 8.94196 42.5186 8.46133 42.6569 7.75496L44.7313 -2.8407C44.8696 -3.54708 44.3889 -4.26188 43.6826 -4.40018L34.0107 -6.29376C33.3043 -6.43206 32.8236 -7.14673 32.9619 -7.85311L34.8661 -17.5793C35.0044 -18.2857 34.5237 -19.0005 33.8173 -19.1388L23.2217 -21.2132C22.5153 -21.3515 21.8005 -20.8708 21.6622 -20.1644L19.758 -10.4382C19.6197 -9.73181 18.9051 -9.25117 18.1987 -9.38947L8.52672 -11.2831C7.82035 -11.4214 7.11624 -10.9949 6.9673 -10.2342L4.89286 0.361429Z" fill="#DD6430"/>
<path d="M6.95621 -10.1799L4.88176 0.415759C4.74347 1.12214 5.22415 1.83694 5.93053 1.97524L15.6025 3.86884C15.8198 3.91139 16.0265 4.0083 16.2226 4.15953C16.5604 4.45134 16.747 4.93914 16.6512 5.42817L14.7576 15.1001C14.6193 15.8065 15.1 16.5212 15.8064 16.6595L26.4021 18.7339C27.1084 18.8722 27.8232 18.3916 27.9615 17.6852L29.8551 8.01325C29.9934 7.30687 30.7081 6.82625 31.4145 6.96454L41.0863 8.85813C41.7927 8.99642 42.5075 8.51566 42.6458 7.80929L44.7202 -2.78637C44.8585 -3.49275 44.3778 -4.20742 43.6714 -4.34572L33.9995 -6.2393C33.2932 -6.3776 32.8124 -7.09227 32.9507 -7.79865L34.855 -17.525C34.9933 -18.2314 34.5126 -18.9461 33.8062 -19.0843L23.2105 -21.1588C22.5042 -21.2971 21.7894 -20.8165 21.6511 -20.1101L19.7469 -10.3837C19.6086 -9.67735 18.8939 -9.19671 18.1876 -9.33501L8.51561 -11.2286C7.75489 -11.3775 7.10514 -10.9406 6.95621 -10.1799Z" fill="#B0501F"/>
<path d="M24.471 40.698L68.3207 49.283C68.9185 49.4001 69.5032 49.0068 69.6202 48.4091C69.7373 47.8114 69.344 47.2266 68.7463 47.1096L24.8966 38.5246C24.2989 38.4075 23.7141 38.8008 23.5971 39.3985C23.4801 39.9962 23.8733 40.581 24.471 40.698Z" fill="#DD6430"/>
<path d="M23.1197 47.5987L66.9694 56.1837C67.5671 56.3007 68.1519 55.9074 68.2689 55.3097C68.3859 54.712 67.9927 54.1272 67.395 54.0102L23.5453 45.4252C22.9476 45.3082 22.3628 45.7015 22.2458 46.2992C22.1287 46.8969 22.522 47.4816 23.1197 47.5987Z" fill="#DD6430"/>
<path d="M21.7794 54.4452L65.6291 63.0302C66.2268 63.1472 66.8116 62.7539 66.9286 62.1562C67.0456 61.5585 66.6523 60.9737 66.0546 60.8567L22.2049 52.2717C21.6072 52.1547 21.0224 52.548 20.9054 53.1457C20.7884 53.7434 21.1817 54.3281 21.7794 54.4452Z" fill="#DD6430"/>
<path d="M20.4298 61.3462L64.2795 69.9312C64.8772 70.0482 65.462 69.6549 65.579 69.0572C65.696 68.4595 65.3027 67.8747 64.705 67.7577L20.8553 59.1727C20.2576 59.0557 19.6728 59.449 19.5558 60.0467C19.4388 60.6444 19.8321 61.2291 20.4298 61.3462Z" fill="#DD6430"/>
<path d="M45.5595 30.1011L71.8585 35.25C74.1406 35.6968 76.4041 34.2217 76.8615 31.8853C77.3083 29.6031 75.8332 27.3397 73.4968 26.8822L47.1978 21.7333C44.9156 21.2865 42.6522 22.7616 42.1948 25.0981C41.8023 27.3909 43.2774 29.6543 45.5595 30.1011Z" fill="#DD6430"/>
<path d="M65.985 83.693L77.124 85.8738L74.9432 97.0129L63.8042 94.832L65.985 83.693Z" fill="#B0501F"/>
<path d="M31.2279 81.4018L60.8957 87.2102C61.4934 87.3272 62.0782 86.9339 62.1952 86.3362C62.3122 85.7385 61.9189 85.1538 61.3212 85.0367L31.5991 79.2177C31.0014 79.1007 30.4166 79.4939 30.2996 80.0916C30.1826 80.6893 30.6302 81.2848 31.2279 81.4018Z" fill="#DD6430"/>
<path d="M30.3126 86.0748L59.9804 91.8832C60.5781 92.0002 61.1629 91.6069 61.2799 91.0092C61.3969 90.4115 61.0036 89.8267 60.4059 89.7097L30.6838 83.8906C30.0861 83.7736 29.5013 84.1669 29.3843 84.7646C29.2673 85.3623 29.7149 85.9577 30.3126 86.0748Z" fill="#DD6430"/>
<path d="M28.0045 97.8658L57.6723 103.674C58.27 103.791 58.8548 103.398 58.9718 102.8C59.0888 102.203 58.6955 101.618 58.0978 101.501L28.3757 95.6817C27.778 95.5646 27.1932 95.9579 27.0762 96.5556C26.9592 97.1533 27.4068 97.7487 28.0045 97.8658Z" fill="#DD6430"/>
<path d="M70.2752 97.2272C70.1452 97.3145 70.0153 97.4019 69.896 97.435C69.1045 97.7314 68.2127 97.3875 67.8619 96.5854L67.8289 96.4661C66.6444 93.5825 65.5899 90.6115 64.7741 87.5744C64.3336 86.0777 63.9582 84.5373 63.6477 82.9531C63.3266 81.4234 63.0705 79.8499 62.9443 78.189C63.8726 79.4992 64.671 80.8967 65.415 82.2836C66.159 83.6705 66.838 85.1011 67.5171 86.5317C68.5362 88.8187 69.436 91.1388 70.2166 93.4919C71.2455 92.8471 72.3289 92.213 73.4559 91.6437C75.157 90.7356 76.9561 89.903 78.8427 89.2004C77.5785 90.7583 76.1833 92.1213 74.7337 93.4737C73.2948 94.7717 71.8015 96.0591 70.2752 97.2272Z" fill="#DD6430"/>
<path d="M64.3372 103.061C65.3563 105.348 66.2562 107.668 67.0367 110.021C68.0656 109.376 69.1489 108.742 70.2759 108.173C71.9771 107.265 73.7762 106.432 75.6628 105.73C74.3986 107.287 73.0034 108.65 71.5538 110.003C70.1149 111.301 68.6216 112.588 67.0952 113.756C66.9653 113.844 66.8353 113.931 66.716 113.964C65.9246 114.261 65.0327 113.917 64.682 113.115L64.6489 112.995C63.4645 110.112 62.41 107.141 61.5941 104.104C61.1537 102.607 60.7783 101.066 60.4678 99.4823C60.1467 97.9525 59.8905 96.379 59.7644 94.7182C60.6927 96.0283 61.4911 97.4258 62.2351 98.8127C63.0334 100.21 63.7124 101.641 64.3372 103.061Z" fill="#DD6430"/>
<path opacity="0.5" d="M7.58326 47.9986L2.8812 72.0154C3.47661 71.5678 4.18068 71.1414 4.86349 70.8237C6.98753 69.7727 9.3525 69.2202 11.8178 69.3079L13.2859 61.8094C10.8235 57.0959 8.91517 52.4344 7.58326 47.9986Z" fill="#E68E56"/>
<path opacity="0.5" d="M3.15057 108.966C4.41782 110.851 4.81799 113.129 4.41374 115.194C4.00949 117.259 2.77953 119.219 0.895253 120.486C0.115552 121.01 -0.686495 121.361 -1.52168 121.592C-0.486991 122.359 0.753238 122.94 2.16599 123.217L76.9876 137.866C81.9323 138.834 86.7404 135.6 87.6978 130.71L89.634 120.821C86.9266 119.952 84.2949 118.985 81.7718 118.04L80.9633 122.17C80.1867 126.136 76.3639 128.66 72.4517 127.894L10.1818 115.703C6.21522 114.926 3.69134 111.103 4.45729 107.191L6.30834 97.7365C3.25256 96.6304 0.735527 94.5015 -0.947438 91.8589L-2.59635 100.281L3.15057 108.966Z" fill="#FFCC91"/>
</svg>
