<svg width="18" height="18" viewBox="0 0 18 18" fill="none" xmlns="http://www.w3.org/2000/svg">
<path d="M6.68939 1.6875C6.05038 1.68745 5.66114 1.68742 5.32538 1.7406C3.4801 2.03286 2.03286 3.4801 1.7406 5.32538C1.68742 5.66114 1.68745 6.05038 1.6875 6.68939L1.6875 11.3106C1.68745 11.9496 1.68742 12.3389 1.7406 12.6746C2.03286 14.5199 3.4801 15.9671 5.32538 16.2594C5.66114 16.3126 6.05038 16.3126 6.68941 16.3125L7.50001 16.3125C8.47019 16.3125 9.36702 15.9915 10.0878 15.45C10.3362 15.2635 10.3863 14.9108 10.1998 14.6625C10.0132 14.4141 9.66057 14.3639 9.41218 14.5505C8.8795 14.9506 8.21823 15.1875 7.50001 15.1875H6.75001C6.03176 15.1875 5.73812 15.1858 5.50137 15.1483C4.13746 14.9322 3.06777 13.8625 2.85175 12.4986C2.81425 12.2619 2.81251 11.9683 2.81251 11.25L2.81251 6.75001C2.81251 6.03176 2.81425 5.73812 2.85175 5.50137C3.06777 4.13746 4.13746 3.06777 5.50137 2.85175C5.73812 2.81425 6.03176 2.81251 6.75001 2.81251H7.50001C8.21823 2.81251 8.8795 3.04938 9.41218 3.44949C9.66058 3.63606 10.0132 3.58595 10.1998 3.33756C10.3863 3.08916 10.3362 2.73655 10.0878 2.54998C9.36702 2.00855 8.47019 1.68751 7.50001 1.68751L6.68939 1.6875Z" fill="white"/>
<path d="M13.0995 5.55924C12.8561 5.36623 12.5023 5.4071 12.3092 5.65053C12.1162 5.89395 12.1571 6.24776 12.4005 6.44077L13.7228 7.48915C14.2508 7.90782 14.6123 8.19551 14.8579 8.43751L5.25001 8.43751C4.93935 8.43751 4.68751 8.68934 4.68751 9.00001C4.68751 9.31067 4.93935 9.56251 5.25001 9.56251L14.8579 9.56251C14.6123 9.8045 14.2508 10.0922 13.7228 10.5109L12.4005 11.5592C12.1571 11.7523 12.1162 12.1061 12.3092 12.3495C12.5023 12.5929 12.8561 12.6338 13.0995 12.4408L14.4486 11.3711C14.9529 10.9712 15.3691 10.6412 15.6656 10.3459C15.9699 10.0428 16.2221 9.70639 16.2906 9.27651C16.3052 9.18493 16.3125 9.09255 16.3125 9.00001C16.3125 8.90747 16.3052 8.81508 16.2906 8.7235C16.2221 8.29362 15.9699 7.95722 15.6656 7.65414C15.3691 7.35879 14.9529 7.02882 14.4486 6.62893L13.0995 5.55924Z" fill="white"/>
</svg>
