<svg width="114" height="100" viewBox="0 0 114 100" fill="none" xmlns="http://www.w3.org/2000/svg">
<path d="M100.076 7.92946C100.076 7.92946 89.2972 66.2149 88.7538 70.154C88.2105 74.0931 87.2602 76.7737 71.8746 76.8277C56.489 76.8817 4.50001 77.3284 4.50001 77.3284L19.7859 -6.67987L100.076 7.92946Z" fill="#2BA760"/>
<path d="M4.43473 77.3703L81.5326 76.4851C81.5326 76.4851 75.8578 77.1754 73.3019 67.3961C61.6717 69.0487 4.43473 77.3703 4.43473 77.3703Z" fill="#1E9852"/>
<path d="M104.923 0.0353665L80.3044 -4.44415L78.7588 4.05048L100.02 7.91915L88.6981 70.1437C87.93 74.3649 83.7821 76.1945 81.5422 76.433C81.4208 76.4647 81.2528 76.4342 81.1314 76.4659C81.0101 76.4977 80.8982 76.4773 80.7863 76.457L80.6184 76.4264L4.4348 77.3702L19.7302 -6.69018L40.9916 -2.8215L42.5373 -11.3161L17.9187 -15.7956C14.7295 -16.3759 11.6542 -14.4051 11.1137 -11.4346L-5.30063 78.7753C-5.84114 81.7459 -3.65716 84.6737 -0.467933 85.254L86.4803 101.075C89.7255 101.665 92.745 99.6843 93.2855 96.7138L109.7 6.50386C110.296 3.54352 108.112 0.615667 104.923 0.0353665Z" fill="#41B773"/>
<path d="M77.4544 -9.43137L68.838 -10.9992C69.5028 -11.7935 69.9161 -12.7951 70.1152 -13.8895C70.798 -17.6417 68.0564 -21.3171 64.0279 -22.0501C59.9994 -22.7831 56.1388 -20.3091 55.456 -16.5568C55.2569 -15.4624 55.3566 -14.4213 55.6894 -13.3917L47.017 -14.9697C45.0027 -15.3362 43.1052 -14.1201 42.7638 -12.244L40.7345 -1.09152C40.3932 0.784592 41.7408 2.59115 43.755 2.95765L74.1924 8.49595C76.2067 8.86246 78.1043 7.64638 78.4456 5.77027L80.4749 -5.38219C80.8163 -7.25831 79.4687 -9.06486 77.4544 -9.43137ZM63.1081 -16.995C64.1712 -16.8016 64.8682 -15.8672 64.688 -14.877C64.5078 -13.8868 63.5264 -13.2578 62.4633 -13.4513C61.4002 -13.6447 60.7031 -14.5791 60.8833 -15.5693C61.0634 -16.5595 62.045 -17.1885 63.1081 -16.995Z" fill="#41B773"/>
<path d="M87.7106 37.7678L54.2517 31.6797C53.6362 31.5677 53.218 31.0071 53.3223 30.4338C53.4266 29.8606 54.0155 29.4832 54.631 29.5952L88.0899 35.6832C88.7054 35.7952 89.1236 36.3559 89.0193 36.9291C88.915 37.5024 88.3261 37.8798 87.7106 37.7678Z" fill="#41B773"/>
<path d="M86.3544 45.2202L52.8955 39.1321C52.28 39.0201 51.8618 38.4595 51.9661 37.8862C52.0704 37.313 52.6593 36.9356 53.2748 37.0475L86.7337 43.1356C87.3492 43.2476 87.7674 43.8083 87.6631 44.3815C87.5588 44.9548 86.9699 45.3322 86.3544 45.2202Z" fill="#41B773"/>
<path d="M84.6478 54.6008L51.1889 48.5127C50.5735 48.4007 50.1553 47.8401 50.2596 47.2668C50.3639 46.6936 50.9528 46.3162 51.5682 46.4282L85.0271 52.5162C85.6426 52.6282 86.0608 53.1889 85.9565 53.7621C85.8522 54.3354 85.2633 54.7128 84.6478 54.6008Z" fill="#41B773"/>
<path d="M41.8207 13.589C41.6974 14.2665 41.4063 14.9135 40.9103 15.4155C40.7045 15.5934 40.3489 15.9594 40.1526 16.0852C38.3014 17.3635 32.0785 20.4307 32.0785 20.4307C32.0785 20.4307 27.3255 15.4202 26.0529 13.5196C25.9134 13.3327 25.6535 12.8547 25.5796 12.6259C25.2922 11.9814 25.2476 11.2734 25.3709 10.5959C25.7692 8.40708 28.0034 6.92921 30.4093 7.36698C32.1997 7.69276 33.5303 8.9578 33.8897 10.4769C34.8171 9.19196 36.508 8.47668 38.2425 8.79228C40.583 9.27198 42.2189 11.4002 41.8207 13.589Z" fill="#41B773"/>
<path d="M59.6614 22.5961C59.2697 22.5248 58.916 22.2451 58.7491 21.8917L57.6196 18.8865L55.6252 21.2694C55.335 21.5935 54.9054 21.7307 54.4019 21.6391C53.9637 21.5055 53.629 21.1216 53.593 20.6843L53.0012 15.6772L51.701 16.7866C51.4298 17.0064 51.0657 17.1017 50.73 17.0406L47.7086 16.4908C47.0931 16.3789 46.6749 15.8182 46.7792 15.2449C46.8835 14.6717 47.4724 14.2943 48.0879 14.4063L50.5498 14.8542L53.0846 12.6773C53.4213 12.4156 53.8414 12.3305 54.2795 12.464C54.7176 12.5976 54.9964 12.9713 55.0419 13.3565L55.5512 17.864L57.0961 16.0454C57.3208 15.7632 57.7599 15.5739 58.2075 15.6554C58.6457 15.789 58.9528 16.0064 59.1197 16.3598L59.9439 18.5018L63.317 10.4474C63.5143 9.99869 64.0282 9.71533 64.5318 9.80696C65.0353 9.89859 65.426 10.2927 65.5085 10.7923L66.238 19.8086L67.4641 18.4703C67.7448 18.1983 68.1184 18.051 68.5101 18.1222L70.7481 18.5295L73.2735 16.4047C73.5542 16.1327 74.0303 16.0578 74.4125 16.1812C74.7947 16.3046 75.0829 16.6262 75.1844 17.0216L75.8473 20.0496L78.769 13.2051C78.9662 12.7564 79.5456 12.4312 80.0397 12.5749C80.5433 12.6665 80.9805 13.123 81.007 13.6123L81.395 21.3282L82.0977 20.3254C82.3414 19.939 82.827 19.812 83.2746 19.8935C83.7222 19.9749 84.1225 20.317 84.1585 20.7542L84.6004 22.7729L85.5923 21.7689C85.873 21.4969 86.2467 21.3495 86.6384 21.4208L91.1704 22.2454C91.7858 22.3574 92.204 22.9181 92.0997 23.4913C91.9954 24.0646 91.4065 24.442 90.7911 24.33L86.8745 23.6173L84.7968 25.8236C84.5066 26.1477 84.0304 26.2226 83.6388 26.1513C83.2007 26.0178 82.9124 25.6961 82.8109 25.3007L82.4611 23.7296L81.3647 25.3068C81.121 25.6932 80.57 25.8621 80.1319 25.7286C79.6378 25.5848 79.303 25.2009 79.2765 24.7115L78.9397 18.6202L76.5444 24.1605C76.3472 24.6092 75.8986 24.8506 75.3855 24.8111C74.882 24.7195 74.4723 24.4296 74.3898 23.93L73.3304 19.2685L71.89 20.514C71.6188 20.7338 71.2546 20.8291 70.9189 20.768L68.7927 20.3811L66.1906 23.2457C65.9004 23.5698 65.4149 23.6968 64.9768 23.5632C64.5386 23.4297 64.2039 23.0457 64.1678 22.6085L63.6281 15.7264L61.0345 22.0383C60.8468 22.4349 60.4447 22.7386 59.9317 22.6991C59.7733 22.6164 59.7173 22.6063 59.6614 22.5961Z" fill="#41B773"/>
<path d="M1.30952 -2.66586L-11.2913 34.1828C-11.775 33.6641 -12.3894 33.2292 -13.1537 32.9825C-14.1884 32.6327 -15.2894 32.6477 -16.214 32.964L-3.84834 -3.22748C-3.45291 -4.44769 -4.31682 -5.73553 -5.76207 -6.05235L-12.2051 -7.49389L-11.2037 -11.7266L-3.69773 -10.0916C0.0785133 -9.24296 2.34505 -5.8155 1.30952 -2.66586Z" fill="#1E9852"/>
<path d="M31.3615 48.8352C31.115 50.1902 30.1135 51.2463 28.7593 51.6998C27.9561 51.9843 27.0694 52.0922 26.1182 51.9191C25.1671 51.7461 24.3752 51.3328 23.7142 50.8356C22.6066 49.9342 21.9854 48.5828 22.232 47.2278C22.6207 45.0912 24.9573 43.6858 27.4751 44.1439C30.0584 44.5601 31.7598 46.6464 31.3615 48.8352Z" fill="#41B773"/>
<path d="M37.1052 49.988C36.356 54.105 32.4196 56.996 27.7729 57.1196L28.7401 51.8039C30.0943 51.3504 31.0957 50.2943 31.3423 48.9394C31.7311 46.8027 30.0392 44.6643 27.5214 44.2061C25.0036 43.748 22.6763 45.1013 22.2781 47.2901C22.0315 48.645 22.6528 49.9964 23.7605 50.8978L22.7932 56.2135C18.4878 54.461 15.8219 50.3687 16.5711 46.2516C17.4624 41.3529 22.7712 38.227 28.4782 39.2655C34.1293 40.2937 37.9965 45.0892 37.1052 49.988Z" fill="#1E9852"/>
<path d="M28.7592 51.6998L16.5173 118.979C13.9095 133.311 -0.0648952 142.128 -24.5156 137.679C-62.9541 130.685 -52.4111 98.7921 -49.6896 83.8353L-48.1534 75.3928C-47.5114 75.9942 -46.7195 76.4074 -45.7684 76.5805C-44.8172 76.7536 -43.9305 76.6457 -43.1178 76.3091L-44.654 84.7516C-46.9488 97.3632 -55.7886 127.52 -23.6726 133.364C-9.01331 136.031 7.07685 134.329 11.603 118.031L23.8355 50.8039C24.487 51.3531 25.2883 51.7143 26.2395 51.8873C27.0693 52.0922 27.956 51.9843 28.7592 51.6998Z" fill="#1E9852"/>
</svg>
